<svg version="1.1" id="Layer_1" xmlns="http://www.w3.org/2000/svg" xmlns:xlink="http://www.w3.org/1999/xlink" x="0px" y="0px"
	 width="100%" viewBox="0 0 889 1280" enable-background="new 0 0 889 1280" xml:space="preserve">
<path fill="#0075FF" opacity="1.000000" stroke="none" 
	d="
M438.000000,1281.000000 
	C292.000000,1281.000000 146.500000,1281.000000 1.000000,1281.000000 
	C1.000000,854.333313 1.000000,427.666656 1.000000,1.000000 
	C297.333344,1.000000 593.666687,1.000000 890.000000,1.000000 
	C890.000000,427.666656 890.000000,854.333313 890.000000,1281.000000 
	C739.500000,1281.000000 589.000000,1281.000000 438.000000,1281.000000 
M578.375244,606.359619 
	C577.865784,606.346191 577.356262,606.332764 576.417664,605.898682 
	C575.844543,605.840332 575.271362,605.781982 574.160339,605.305786 
	C572.958618,604.268982 571.756958,603.232178 570.566406,601.496460 
	C569.466736,598.615845 567.490784,597.936096 564.043274,598.826965 
	C563.031677,598.549133 562.020020,598.271301 560.767273,597.324951 
	C559.998169,595.861450 559.262207,594.379395 558.453857,592.937866 
	C556.002930,588.567383 553.523926,584.212585 550.775024,579.207642 
	C549.753723,576.773132 548.732422,574.338684 547.600586,571.098633 
	C546.973877,565.693176 546.946838,560.129700 545.574768,554.920593 
	C543.691223,547.769531 540.421265,540.991577 538.391052,533.869690 
	C532.258850,512.358337 520.508911,506.330780 502.484253,502.126312 
	C502.680695,501.153290 502.831329,500.168335 503.080292,499.208954 
	C507.885986,480.692291 514.578735,462.353027 509.047150,442.995758 
	C510.380493,442.482727 512.119507,442.338440 512.978149,441.393860 
	C517.065857,436.897156 520.621948,431.796722 520.217468,425.495270 
	C519.710144,417.591034 518.518188,409.706268 517.114319,401.904388 
	C516.827942,400.312775 514.292114,399.125946 512.931091,397.184814 
	C512.992188,396.800659 513.053345,396.416534 513.696228,395.660248 
	C515.716858,390.394409 518.408569,385.278412 519.624695,379.832886 
	C522.557251,366.701904 524.963989,353.445160 527.255493,340.182617 
	C528.525208,332.833923 529.151794,325.373291 530.029419,317.958527 
	C530.164673,316.815704 530.139587,315.646698 530.106323,314.492188 
	C529.739380,301.739929 528.352661,288.916962 529.250305,276.255554 
	C530.209167,262.731812 526.878052,249.953720 525.241638,236.873245 
	C525.057983,235.405457 523.565613,234.090393 522.645325,232.728027 
	C520.718140,229.874969 518.285889,227.250992 516.915161,224.154785 
	C512.372314,213.893188 506.995911,204.215164 498.627106,196.579239 
	C495.457672,193.687363 491.477539,191.690903 488.265808,188.837357 
	C475.239410,177.263779 460.108337,171.599258 442.695679,171.607056 
	C438.345947,171.608994 433.637909,169.439697 429.732086,170.537186 
	C424.254303,172.076370 419.217529,172.729630 413.677063,171.551544 
	C410.826111,170.945358 407.717621,171.191605 404.766602,171.477203 
	C392.301788,172.683517 379.814270,173.765656 367.407837,175.434235 
	C354.157135,177.216354 340.990021,179.618073 327.781250,181.716660 
	C326.319092,181.948959 324.824860,182.008102 323.342194,182.077927 
	C316.821747,182.384979 309.723114,181.129425 303.911774,183.311111 
	C294.790955,186.735229 285.662018,191.384415 278.111053,197.468872 
	C264.802399,208.192780 254.924271,222.765091 240.571976,232.521286 
	C239.956802,232.939453 239.602493,233.870377 239.324814,234.634445 
	C237.849030,238.695267 235.722794,242.677948 235.128098,246.872849 
	C232.794144,263.336395 231.112091,279.891663 228.847794,296.366089 
	C227.874939,303.444427 230.422195,308.850830 234.691193,314.139526 
	C237.087036,317.107635 239.987610,320.793213 240.122101,324.254211 
	C240.552994,335.343048 240.463333,346.546326 239.325806,357.576660 
	C238.069366,369.760040 241.777496,379.818451 249.034653,389.417084 
	C248.990585,389.595032 248.946518,389.772949 248.238907,390.137054 
	C246.638580,391.907501 243.839355,393.554962 243.642929,395.469421 
	C242.734451,404.324524 241.845886,413.196533 245.848022,421.839874 
	C248.693619,427.985504 250.195831,434.575012 248.849716,441.629242 
	C248.325623,444.375702 248.652634,447.721924 249.791061,450.256317 
	C252.088806,455.371521 254.856262,460.366913 258.097168,464.938782 
	C260.746613,468.676300 262.865692,473.562714 268.861664,474.681763 
	C271.743256,487.861603 274.624847,501.041473 276.762238,514.220154 
	C269.405182,518.925659 261.976288,523.523376 254.709946,528.364990 
	C246.251953,534.000671 239.939896,542.276245 230.744812,547.218384 
	C226.882919,549.294006 224.749451,554.400085 221.461594,557.768677 
	C215.107468,564.278870 208.952484,571.131226 201.795898,576.649902 
	C198.047546,579.540344 196.070038,582.371582 195.742004,586.663452 
	C195.060226,595.583374 194.191818,604.509583 194.033707,613.444336 
	C193.756622,629.103210 193.684235,628.535217 179.676636,635.205322 
	C163.633377,642.844666 147.789307,651.044495 132.500000,660.085388 
	C116.926430,669.294373 101.943794,679.551575 87.097748,689.916016 
	C81.771553,693.634399 76.658325,698.386597 73.124214,703.767883 
	C68.145622,711.348755 64.649902,719.916748 60.672039,728.136230 
	C58.506775,732.610413 56.294544,737.117615 54.746078,741.821472 
	C52.357868,749.076233 50.486706,756.503235 48.472763,763.877991 
	C47.906765,765.950623 47.394238,768.079102 47.222607,770.211426 
	C46.155628,783.467651 45.358383,796.747314 44.151978,809.990112 
	C42.733002,825.566284 41.740662,841.337158 35.016064,855.779602 
	C30.743120,864.956604 29.521891,874.519409 29.131557,884.371887 
	C29.065697,886.034424 29.074749,887.713684 28.831387,889.352905 
	C27.731913,896.758789 30.966125,899.743530 38.617790,899.111389 
	C50.963383,898.091370 63.341820,896.791626 75.706970,896.785461 
	C340.032074,896.653259 604.357239,896.685181 868.682434,896.685120 
	C879.525391,896.685120 879.746643,896.685303 879.758118,885.627502 
	C879.813110,832.463379 879.738525,779.299133 879.859741,725.604736 
	C879.773010,724.947021 879.686340,724.289368 879.482727,722.744568 
	C878.622009,724.310120 878.207214,725.064636 877.256531,726.099854 
	C876.905762,726.298706 876.555054,726.497620 875.372070,726.490723 
	C874.520081,726.502686 873.668091,726.514587 872.241516,726.154541 
	C870.717468,724.483948 869.193420,722.813354 867.624146,720.554565 
	C867.141907,719.965881 866.659668,719.377258 865.900452,718.212524 
	C864.901672,716.825500 863.902832,715.438477 862.783508,713.372620 
	C861.945923,711.814453 861.108337,710.256226 859.862488,708.168274 
	C856.368835,703.757324 852.166748,700.877686 845.888245,701.245605 
	C838.727966,692.731201 831.675415,684.121948 824.325134,675.774841 
	C822.665527,673.890198 820.130371,672.181152 817.722229,671.655640 
	C808.009094,669.535583 798.237915,667.536987 788.390991,666.220520 
	C780.482971,665.163208 773.326843,662.783081 766.408203,658.802429 
	C759.802856,655.001953 752.955200,651.104919 745.703430,649.070740 
	C735.634033,646.246155 728.285889,639.870117 720.509277,633.687195 
	C715.134521,629.413879 709.315979,625.698792 703.151001,621.291382 
	C701.008545,619.589050 698.866150,617.886658 696.636780,615.497437 
	C692.957458,611.453491 690.973633,611.312012 686.173340,614.877319 
	C685.773010,614.973816 685.372620,615.070251 684.556824,614.812561 
	C683.621338,615.128174 682.685852,615.443848 680.970154,615.815674 
	C678.669250,616.191223 676.368286,616.566711 673.796570,616.303345 
	C672.201660,615.364258 670.594971,613.611511 669.013916,613.634338 
	C663.647644,613.711731 658.290466,614.416809 652.318115,614.750244 
	C651.905823,614.785645 651.493530,614.820984 650.691895,614.735291 
	C650.691895,614.735291 650.285278,614.706177 649.783691,614.177917 
	C643.198730,613.529175 636.613770,612.880432 629.133911,612.073792 
	C625.871216,611.925598 622.608582,611.777405 618.930908,611.198242 
	C617.636719,611.212097 616.342468,611.225891 614.193176,611.118164 
	C611.921509,610.940735 609.649841,610.763245 607.089661,610.224792 
	C606.406738,610.222656 605.723877,610.220520 604.212952,610.065308 
	C597.045105,608.832458 590.147217,605.526917 582.358826,606.791809 
	C581.282104,606.692200 580.205444,606.592529 578.375244,606.359619 
M880.017944,712.051636 
	C880.017944,708.968994 880.017944,705.886414 880.017944,702.803772 
	C879.561890,702.830261 879.105835,702.856750 878.649780,702.883240 
	C878.649780,707.148682 878.649780,711.414062 878.649780,715.679504 
	C878.990662,715.689697 879.331543,715.699951 879.672424,715.710144 
	C879.788818,714.765869 879.905212,713.821655 880.017944,712.051636 
z"/>
<path fill="#3D845C" opacity="1.000000" stroke="none" 
	d="
M862.903992,714.051514 
	C863.902832,715.438477 864.901672,716.825500 866.060669,718.798279 
	C866.703735,719.970276 867.186523,720.556519 867.669312,721.142761 
	C869.193420,722.813354 870.717468,724.483948 872.673706,726.553955 
	C874.138672,726.867798 875.171448,726.782166 876.204285,726.696533 
	C876.555054,726.497620 876.905762,726.298706 877.842773,726.021362 
	C878.855957,726.006897 879.282959,726.070862 879.709961,726.134888 
	C879.738525,779.299133 879.813110,832.463379 879.758118,885.627502 
	C879.746643,896.685303 879.525391,896.685120 868.682434,896.685120 
	C604.357239,896.685181 340.032074,896.653259 75.706970,896.785461 
	C63.341820,896.791626 50.963383,898.091370 38.617790,899.111389 
	C30.966125,899.743530 27.731913,896.758789 28.831387,889.352905 
	C29.074749,887.713684 29.065697,886.034424 29.131557,884.371887 
	C29.521891,874.519409 30.743120,864.956604 35.016064,855.779602 
	C41.740662,841.337158 42.733002,825.566284 44.151978,809.990112 
	C45.358383,796.747314 46.155628,783.467651 47.222607,770.211426 
	C47.394238,768.079102 47.906765,765.950623 48.472763,763.877991 
	C50.486706,756.503235 52.357868,749.076233 54.746078,741.821472 
	C56.294544,737.117615 58.506775,732.610413 60.672039,728.136230 
	C64.649902,719.916748 68.145622,711.348755 73.124214,703.767883 
	C76.658325,698.386597 81.771553,693.634399 87.097748,689.916016 
	C101.943794,679.551575 116.926430,669.294373 132.500000,660.085388 
	C147.789307,651.044495 163.633377,642.844666 179.676636,635.205322 
	C193.684235,628.535217 193.756622,629.103210 194.033707,613.444336 
	C194.191818,604.509583 195.060226,595.583374 195.742004,586.663452 
	C196.070038,582.371582 198.047546,579.540344 201.795898,576.649902 
	C208.952484,571.131226 215.107468,564.278870 221.461594,557.768677 
	C224.749451,554.400085 226.882919,549.294006 230.744812,547.218384 
	C239.939896,542.276245 246.251953,534.000671 254.709946,528.364990 
	C261.976288,523.523376 269.405182,518.925659 277.356323,514.438171 
	C278.724701,516.113220 279.627167,517.517517 280.251923,519.036133 
	C283.547821,527.047241 287.556213,534.348267 294.499054,540.116211 
	C299.138611,543.970581 305.119781,547.312744 306.013672,554.832581 
	C306.042267,557.566589 305.820770,559.917297 306.149567,562.188477 
	C307.719910,573.035767 308.247070,583.613708 302.621918,593.777710 
	C300.334961,597.909973 300.864227,602.377563 303.116333,607.106750 
	C306.225372,613.635620 309.683044,620.755554 309.919098,627.726257 
	C310.318726,639.529602 318.305054,646.143311 326.364807,649.120850 
	C337.788879,653.341125 349.447052,658.571716 362.161987,658.881653 
	C366.482819,658.987000 370.818542,659.183105 375.110077,659.668274 
	C391.585388,661.530945 406.852844,658.440369 422.041138,651.430969 
	C431.979340,646.844482 440.228729,640.001465 449.689148,634.928711 
	C455.487213,631.819702 457.750122,626.129761 459.605042,619.995789 
	C463.726685,606.366089 468.178802,592.824707 472.939850,579.404724 
	C475.495972,572.199829 479.291321,565.366455 475.869324,557.059082 
	C477.292389,552.745056 478.605499,548.696228 480.411713,544.880737 
	C485.695892,533.718018 495.096802,524.809570 498.034180,512.291260 
	C498.804199,509.009644 500.943634,506.049347 502.454102,502.941467 
	C520.508911,506.330780 532.258850,512.358337 538.391052,533.869690 
	C540.421265,540.991577 543.691223,547.769531 545.574768,554.920593 
	C546.946838,560.129700 546.973877,565.693176 547.338135,571.556763 
	C543.982666,572.816284 544.136230,574.706116 545.663391,576.765137 
	C547.016235,578.588989 548.631226,580.218384 550.175171,582.273193 
	C550.850037,584.073364 551.480286,585.534119 552.099426,587.361206 
	C553.023865,589.216003 553.959412,590.704407 554.890686,592.494080 
	C554.920166,593.195557 554.953857,593.595703 554.858459,594.241333 
	C555.822815,595.567383 556.916260,596.648010 558.381409,597.797852 
	C559.504883,597.909241 560.256653,597.951355 561.008423,597.993469 
	C562.020020,598.271301 563.031677,598.549133 564.565979,599.223633 
	C566.910889,600.478699 568.733093,601.337036 570.555298,602.195374 
	C571.756958,603.232178 572.958618,604.268982 574.450317,605.731567 
	C574.803833,606.444519 574.875061,606.729736 575.040649,607.309326 
	C576.593262,610.881775 578.304382,608.798828 580.414429,607.792908 
	C581.440979,607.588989 582.017700,607.419006 582.594421,607.249023 
	C590.147217,605.526917 597.045105,608.832458 604.886230,610.310913 
	C606.165710,610.566284 606.771912,610.576050 607.378174,610.585815 
	C609.649841,610.763245 611.921509,610.940735 614.936646,611.369141 
	C616.901978,611.623169 618.123962,611.626160 619.345886,611.629211 
	C622.608582,611.777405 625.871216,611.925598 629.745361,612.340576 
	C630.817139,612.786377 631.277588,612.965393 631.890625,613.464600 
	C635.288940,619.478455 640.178345,621.175720 647.187012,618.895813 
	C647.187012,617.677063 647.187012,616.386230 647.578979,615.100464 
	C648.742371,614.972351 649.513855,614.839294 650.285278,614.706177 
	C650.285278,614.706177 650.691895,614.735291 650.891724,615.199097 
	C652.413757,616.735107 653.773865,618.763489 655.051636,618.712891 
	C660.395386,618.501465 665.714539,617.666138 671.421387,617.086304 
	C672.555847,617.056213 673.311584,616.999268 674.067383,616.942261 
	C676.368286,616.566711 678.669250,616.191223 681.697205,615.872070 
	C683.273560,615.674500 684.122925,615.420593 684.972290,615.166748 
	C685.372620,615.070251 685.773010,614.973816 686.830811,614.935303 
	C687.971558,615.032959 688.454834,615.072632 689.171082,615.358521 
	C691.292419,615.787109 693.180725,615.969421 695.344299,616.185730 
	C695.987610,616.207947 696.355652,616.196167 696.723694,616.184326 
	C698.866150,617.886658 701.008545,619.589050 703.494446,621.819458 
	C704.476746,623.301086 704.927246,624.492188 705.783752,625.171204 
	C713.967407,631.659302 722.075989,638.259033 730.525024,644.386963 
	C733.785095,646.751343 737.828247,648.067200 741.578613,649.715027 
	C744.960083,651.200684 749.939453,650.981567 748.717102,657.009094 
	C748.645935,657.359802 749.505981,658.179688 750.056641,658.331482 
	C754.155579,659.461731 758.275452,660.521973 762.412048,661.506165 
	C763.807068,661.838074 765.316406,661.715332 766.693359,662.092773 
	C773.547729,663.971436 780.321167,666.172058 787.224976,667.837097 
	C797.826233,670.393860 808.527100,672.536072 819.140686,675.044678 
	C820.615234,675.393127 822.075745,676.610046 823.130493,677.792725 
	C829.385681,684.806641 835.463318,691.979370 841.744995,698.968994 
	C842.882629,700.234802 844.688965,700.899658 846.186584,701.841919 
	C852.166748,700.877686 856.368835,703.757324 860.066833,708.799072 
	C861.148743,710.970398 862.026367,712.510986 862.903992,714.051514 
z"/>
<path fill="#232526" opacity="1.000000" stroke="none" 
	d="
M249.298798,388.934753 
	C241.777496,379.818451 238.069366,369.760040 239.325806,357.576660 
	C240.463333,346.546326 240.552994,335.343048 240.122101,324.254211 
	C239.987610,320.793213 237.087036,317.107635 234.691193,314.139526 
	C230.422195,308.850830 227.874939,303.444427 228.847794,296.366089 
	C231.112091,279.891663 232.794144,263.336395 235.128098,246.872849 
	C235.722794,242.677948 237.849030,238.695267 239.324814,234.634445 
	C239.602493,233.870377 239.956802,232.939453 240.571976,232.521286 
	C254.924271,222.765091 264.802399,208.192780 278.111053,197.468872 
	C285.662018,191.384415 294.790955,186.735229 303.911774,183.311111 
	C309.723114,181.129425 316.821747,182.384979 323.342194,182.077927 
	C324.824860,182.008102 326.319092,181.948959 327.781250,181.716660 
	C340.990021,179.618073 354.157135,177.216354 367.407837,175.434235 
	C379.814270,173.765656 392.301788,172.683517 404.766602,171.477203 
	C407.717621,171.191605 410.826111,170.945358 413.677063,171.551544 
	C419.217529,172.729630 424.254303,172.076370 429.732086,170.537186 
	C433.637909,169.439697 438.345947,171.608994 442.695679,171.607056 
	C460.108337,171.599258 475.239410,177.263779 488.265808,188.837357 
	C491.477539,191.690903 495.457672,193.687363 498.627106,196.579239 
	C506.995911,204.215164 512.372314,213.893188 516.915161,224.154785 
	C518.285889,227.250992 520.718140,229.874969 522.645325,232.728027 
	C523.565613,234.090393 525.057983,235.405457 525.241638,236.873245 
	C526.878052,249.953720 530.209167,262.731812 529.250305,276.255554 
	C528.352661,288.916962 529.739380,301.739929 530.106323,314.492188 
	C530.139587,315.646698 530.164673,316.815704 530.029419,317.958527 
	C529.151794,325.373291 528.525208,332.833923 527.255493,340.182617 
	C524.963989,353.445160 522.557251,366.701904 519.624695,379.832886 
	C518.408569,385.278412 515.716858,390.394409 513.053467,395.924866 
	C510.544647,398.678986 508.678619,401.168549 506.124420,404.576263 
	C506.403534,402.121552 506.684845,400.467041 506.765137,398.802826 
	C507.163483,390.548859 508.293396,382.233673 507.681702,374.050964 
	C506.845551,362.865265 504.361389,351.813141 503.150970,340.642303 
	C501.774231,327.936157 501.029358,315.161713 499.995667,302.418091 
	C499.619385,297.779449 499.540955,293.083008 498.718628,288.522614 
	C497.672302,282.720184 496.016388,276.198212 490.511444,273.702881 
	C481.099335,269.436493 474.194397,260.670135 463.214752,259.256226 
	C458.517517,258.651367 454.080017,255.891083 449.389832,255.402313 
	C442.276031,254.660965 435.043488,255.096039 427.864410,254.913315 
	C426.396759,254.875946 424.889191,254.467102 423.491974,253.970688 
	C419.632202,252.599350 416.326294,253.564590 412.502380,254.932632 
	C407.887604,256.583649 402.613678,256.919037 397.638367,256.851013 
	C394.301453,256.805359 391.045532,254.584717 387.652740,254.179108 
	C377.126312,252.920670 366.554474,252.034500 355.992828,251.086624 
	C354.526001,250.954987 352.981873,251.123108 351.533722,251.433441 
	C340.326752,253.835175 328.943634,255.674866 318.006866,258.983551 
	C311.040894,261.090942 304.738861,265.399139 298.157745,268.756989 
	C297.747833,268.966125 297.495758,269.489838 297.178070,269.873688 
	C294.854858,272.681091 292.449554,275.425629 290.231232,278.313690 
	C286.808594,282.769775 283.011261,286.978912 284.831207,293.513397 
	C286.739777,300.366089 288.369446,307.334381 289.469452,314.354248 
	C289.868500,316.901001 288.936859,320.051544 287.634064,322.378967 
	C285.574280,326.058624 282.591309,329.208710 280.179291,332.707184 
	C277.096893,337.178040 274.094543,341.712036 271.268158,346.347107 
	C270.310272,347.917999 269.529510,349.866486 269.481201,351.664246 
	C269.390961,355.025269 269.971283,358.398590 270.134308,361.773468 
	C270.374634,366.748444 270.135406,371.773865 270.747314,376.697388 
	C271.705902,384.410767 273.611450,392.097839 268.456512,399.138916 
	C267.423004,400.550507 266.376221,401.952362 265.335541,403.358704 
	C263.973022,402.072266 262.167236,401.022766 261.329498,399.455780 
	C258.611938,394.372742 254.776581,390.765656 249.298798,388.934753 
z"/>
<path fill="#2B2B2B" opacity="1.000000" stroke="none" 
	d="
M249.166718,389.175903 
	C254.776581,390.765656 258.611938,394.372742 261.329498,399.455780 
	C262.167236,401.022766 263.973022,402.072266 265.335541,403.358704 
	C266.376221,401.952362 267.423004,400.550507 268.456512,399.138916 
	C273.611450,392.097839 271.705902,384.410767 270.747314,376.697388 
	C270.135406,371.773865 270.374634,366.748444 270.134308,361.773468 
	C269.971283,358.398590 269.390961,355.025269 269.481201,351.664246 
	C269.529510,349.866486 270.310272,347.917999 271.268158,346.347107 
	C274.094543,341.712036 277.096893,337.178040 280.179291,332.707184 
	C282.591309,329.208710 285.574280,326.058624 287.634064,322.378967 
	C288.936859,320.051544 289.868500,316.901001 289.469452,314.354248 
	C288.369446,307.334381 286.739777,300.366089 284.831207,293.513397 
	C283.011261,286.978912 286.808594,282.769775 290.231232,278.313690 
	C292.449554,275.425629 294.854858,272.681091 297.178070,269.873688 
	C297.495758,269.489838 297.747833,268.966125 298.157745,268.756989 
	C304.738861,265.399139 311.040894,261.090942 318.006866,258.983551 
	C328.943634,255.674866 340.326752,253.835175 351.533722,251.433441 
	C352.981873,251.123108 354.526001,250.954987 355.992828,251.086624 
	C366.554474,252.034500 377.126312,252.920670 387.652740,254.179108 
	C391.045532,254.584717 394.301453,256.805359 397.638367,256.851013 
	C402.613678,256.919037 407.887604,256.583649 412.502380,254.932632 
	C416.326294,253.564590 419.632202,252.599350 423.491974,253.970688 
	C424.889191,254.467102 426.396759,254.875946 427.864410,254.913315 
	C435.043488,255.096039 442.276031,254.660965 449.389832,255.402313 
	C454.080017,255.891083 458.517517,258.651367 463.214752,259.256226 
	C474.194397,260.670135 481.099335,269.436493 490.511444,273.702881 
	C496.016388,276.198212 497.672302,282.720184 498.718628,288.522614 
	C499.540955,293.083008 499.619385,297.779449 499.995667,302.418091 
	C501.029358,315.161713 501.774231,327.936157 503.150970,340.642303 
	C504.361389,351.813141 506.845551,362.865265 507.681702,374.050964 
	C508.293396,382.233673 507.163483,390.548859 506.765137,398.802826 
	C506.684845,400.467041 506.403534,402.121552 506.124420,404.576263 
	C508.678619,401.168549 510.544647,398.678986 512.762573,396.110901 
	C513.053345,396.416534 512.992188,396.800659 512.605713,397.722229 
	C511.462646,400.037445 510.175873,401.748749 509.912659,403.605225 
	C509.016815,409.922913 508.139832,416.279053 507.903290,422.644592 
	C507.654022,429.351654 508.148132,436.086273 508.317505,442.808868 
	C514.578735,462.353027 507.885986,480.692291 503.080292,499.208954 
	C502.831329,500.168335 502.680695,501.153290 502.469177,502.533875 
	C500.943634,506.049347 498.804199,509.009644 498.034180,512.291260 
	C495.096802,524.809570 485.695892,533.718018 480.411713,544.880737 
	C478.605499,548.696228 477.292389,552.745056 475.522003,557.181091 
	C471.208313,561.792664 467.223083,566.012573 463.011292,569.992676 
	C460.160156,572.686951 457.170044,575.313049 453.918427,577.485046 
	C449.662109,580.328186 445.199127,582.918518 440.620667,585.208984 
	C434.540375,588.250793 428.514771,591.893860 422.024719,593.536255 
	C398.787720,599.416870 376.302094,595.455872 355.290771,584.952759 
	C342.736237,578.677002 331.311615,570.143738 319.364868,562.647949 
	C314.936554,559.869507 310.467590,557.155823 306.017151,554.412659 
	C305.119781,547.312744 299.138611,543.970581 294.499054,540.116211 
	C287.556213,534.348267 283.547821,527.047241 280.251923,519.036133 
	C279.627167,517.517517 278.724701,516.113220 277.728394,514.438721 
	C274.624847,501.041473 271.743256,487.861603 268.929413,473.934631 
	C269.150421,471.123138 269.618561,469.025543 269.404541,467.000000 
	C268.243744,456.012634 266.721985,445.061005 265.696136,434.062439 
	C264.621887,422.544952 263.378418,411.073669 257.386597,400.890747 
	C255.065369,396.945923 251.759674,393.580353 248.902466,389.950867 
	C248.946518,389.772949 248.990585,389.595032 249.166718,389.175903 
M287.220551,286.040863 
	C286.894897,287.786865 286.019989,289.640533 286.337494,291.260498 
	C287.803192,298.738464 289.441559,306.192261 291.337524,313.572693 
	C292.525513,318.197174 292.423157,321.858826 287.801208,324.748901 
	C285.700562,326.062408 283.715240,328.460480 282.911987,330.791870 
	C279.542175,340.572357 272.336914,349.023346 272.689819,360.099945 
	C272.900482,366.712341 272.942902,373.330017 273.147919,379.942657 
	C273.418610,388.672638 275.247162,397.353729 272.378662,406.110229 
	C270.929382,410.534363 270.252655,415.456238 270.423706,420.109039 
	C270.679291,427.061920 273.047577,434.036621 272.654083,440.895111 
	C271.513885,460.768341 280.390900,476.289795 292.893280,490.233276 
	C297.911530,495.829987 304.152313,500.342712 309.917480,505.253937 
	C315.075562,509.648041 320.302155,513.965515 325.613159,518.172058 
	C326.364471,518.767212 328.241943,519.054199 328.754456,518.577271 
	C329.531372,517.854248 329.927063,516.311340 329.847229,515.160950 
	C329.664429,512.526184 328.666046,509.902344 328.761658,507.302124 
	C329.097473,498.168610 329.711578,489.044067 330.312439,479.922180 
	C330.564880,476.089935 332.794708,473.796570 336.126221,471.867798 
	C351.457733,462.991669 367.743256,456.323242 384.489990,450.770599 
	C386.960358,449.951538 390.807526,449.986847 392.731232,451.390259 
	C400.889130,457.341705 400.711853,457.584808 408.743286,451.763489 
	C414.902649,447.299072 420.428925,448.235199 425.269714,453.944916 
	C427.571442,456.659790 430.447998,459.145844 433.543579,460.879608 
	C442.061676,465.650391 450.859100,469.920105 459.477875,474.515930 
	C460.868439,475.257416 462.574799,476.444061 462.997772,477.783966 
	C464.877472,483.738129 466.283142,489.840057 467.995850,495.849915 
	C468.501740,497.625031 469.451904,499.273529 470.198486,500.980042 
	C471.684967,500.110260 473.468140,499.523621 474.611023,498.325958 
	C483.985352,488.501923 491.166046,476.685059 502.170685,468.285370 
	C503.599854,467.194489 504.132629,464.140442 504.068115,462.026703 
	C503.860138,455.215027 502.575500,448.398315 502.794983,441.618774 
	C503.406616,422.728180 505.086487,403.861969 505.326538,384.973175 
	C505.486115,372.416138 504.276459,359.797485 502.973145,347.279938 
	C501.909515,337.064606 499.457275,326.998718 498.248901,316.792175 
	C497.038300,306.567139 497.252625,296.139374 495.523529,286.025940 
	C494.804077,281.818115 491.515167,276.862366 487.915283,274.572998 
	C479.545319,269.250183 471.445801,263.092285 461.494202,260.608307 
	C457.318604,259.566071 453.176025,257.149597 449.076202,257.273285 
	C435.510437,257.682526 421.982483,259.235016 408.417145,259.808472 
	C400.477112,260.144135 392.494843,259.329834 384.529419,259.250183 
	C371.264648,259.117462 357.967133,258.599213 344.743591,259.330872 
	C336.371094,259.794128 328.156097,262.630249 319.778717,263.643188 
	C313.994293,264.342560 308.544586,264.724152 304.970428,270.202637 
	C304.217133,271.357269 302.449097,271.796204 301.350708,272.788635 
	C296.742554,276.952179 292.211212,281.200714 287.220551,286.040863 
M421.229889,475.523651 
	C418.417206,475.428436 415.598694,475.168945 412.792908,475.268280 
	C403.707062,475.589966 394.478790,475.168243 385.579498,476.663910 
	C374.037384,478.603790 362.810181,482.346619 351.346863,484.853394 
	C344.695618,486.307892 340.841370,489.826050 340.180450,496.500824 
	C340.067261,497.643707 339.581818,498.745819 339.417603,499.888214 
	C338.405487,506.929718 336.819092,513.959961 336.619781,521.027649 
	C336.404755,528.653320 338.753937,536.144226 344.211823,541.604614 
	C351.219391,548.615417 358.788635,555.146179 366.642914,561.199951 
	C371.715057,565.109375 377.639221,567.969482 383.354858,570.969788 
	C387.848969,573.328857 392.587860,575.230347 397.261505,577.233582 
	C398.762390,577.876892 400.417786,578.644409 401.975372,578.589355 
	C410.102722,578.301880 416.742065,574.336792 421.867889,568.526855 
	C427.563751,562.070679 432.053497,554.560791 437.631439,547.987549 
	C444.645142,539.722351 448.892609,529.343994 458.643005,523.048096 
	C464.417145,519.319702 463.773346,516.729553 460.121155,510.451416 
	C458.893921,508.341858 458.666321,505.661255 457.494232,503.506989 
	C454.684662,498.343018 452.740448,491.667999 448.351562,488.630707 
	C440.409393,483.134491 430.939056,479.846558 421.229889,475.523651 
z"/>
<path fill="#D5B497" opacity="1.000000" stroke="none" 
	d="
M248.570679,390.043945 
	C251.759674,393.580353 255.065369,396.945923 257.386597,400.890747 
	C263.378418,411.073669 264.621887,422.544952 265.696136,434.062439 
	C266.721985,445.061005 268.243744,456.012634 269.404541,467.000000 
	C269.618561,469.025543 269.150421,471.123138 268.827271,473.459106 
	C262.865692,473.562714 260.746613,468.676300 258.097168,464.938782 
	C254.856262,460.366913 252.088806,455.371521 249.791061,450.256317 
	C248.652634,447.721924 248.325623,444.375702 248.849716,441.629242 
	C250.195831,434.575012 248.693619,427.985504 245.848022,421.839874 
	C241.845886,413.196533 242.734451,404.324524 243.642929,395.469421 
	C243.839355,393.554962 246.638580,391.907501 248.570679,390.043945 
z"/>
<path fill="#277E96" opacity="1.000000" stroke="none" 
	d="
M846.037415,701.543762 
	C844.688965,700.899658 842.882629,700.234802 841.744995,698.968994 
	C835.463318,691.979370 829.385681,684.806641 823.130493,677.792725 
	C822.075745,676.610046 820.615234,675.393127 819.140686,675.044678 
	C808.527100,672.536072 797.826233,670.393860 787.224976,667.837097 
	C780.321167,666.172058 773.547729,663.971436 766.693359,662.092773 
	C765.316406,661.715332 763.807068,661.838074 762.412048,661.506165 
	C758.275452,660.521973 754.155579,659.461731 750.056641,658.331482 
	C749.505981,658.179688 748.645935,657.359802 748.717102,657.009094 
	C749.939453,650.981567 744.960083,651.200684 741.578613,649.715027 
	C737.828247,648.067200 733.785095,646.751343 730.525024,644.386963 
	C722.075989,638.259033 713.967407,631.659302 705.783752,625.171204 
	C704.927246,624.492188 704.476746,623.301086 703.766846,622.040894 
	C709.315979,625.698792 715.134521,629.413879 720.509277,633.687195 
	C728.285889,639.870117 735.634033,646.246155 745.703430,649.070740 
	C752.955200,651.104919 759.802856,655.001953 766.408203,658.802429 
	C773.326843,662.783081 780.482971,665.163208 788.390991,666.220520 
	C798.237915,667.536987 808.009094,669.535583 817.722229,671.655640 
	C820.130371,672.181152 822.665527,673.890198 824.325134,675.774841 
	C831.675415,684.121948 838.727966,692.731201 846.037415,701.543762 
z"/>
<path fill="#D5B497" opacity="1.000000" stroke="none" 
	d="
M508.682312,442.902313 
	C508.148132,436.086273 507.654022,429.351654 507.903290,422.644592 
	C508.139832,416.279053 509.016815,409.922913 509.912659,403.605225 
	C510.175873,401.748749 511.462646,400.037445 512.536804,398.006073 
	C514.292114,399.125946 516.827942,400.312775 517.114319,401.904388 
	C518.518188,409.706268 519.710144,417.591034 520.217468,425.495270 
	C520.621948,431.796722 517.065857,436.897156 512.978149,441.393860 
	C512.119507,442.338440 510.380493,442.482727 508.682312,442.902313 
z"/>
<path fill="#277E96" opacity="1.000000" stroke="none" 
	d="
M554.987549,593.995911 
	C554.953857,593.595703 554.920166,593.195557 554.910339,592.106812 
	C553.992981,589.943787 553.051758,588.469299 552.110535,586.994812 
	C551.480286,585.534119 550.850037,584.073364 550.339355,582.040283 
	C550.657898,580.929199 550.856934,580.390442 551.055908,579.851685 
	C553.523926,584.212585 556.002930,588.567383 558.453857,592.937866 
	C559.262207,594.379395 559.998169,595.861450 560.887817,597.659180 
	C560.256653,597.951355 559.504883,597.909241 558.295044,597.513428 
	C556.887146,596.105164 555.937317,595.050537 554.987549,593.995911 
z"/>
<path fill="#2A7F8F" opacity="1.000000" stroke="none" 
	d="
M671.042664,617.059448 
	C665.714539,617.666138 660.395386,618.501465 655.051636,618.712891 
	C653.773865,618.763489 652.413757,616.735107 651.086365,615.259644 
	C651.493530,614.820984 651.905823,614.785645 652.980103,615.043884 
	C655.576477,615.561951 657.507996,615.817627 659.446045,616.004150 
	C663.309631,616.375977 667.176941,616.709839 671.042664,617.059448 
z"/>
<path fill="#277E96" opacity="1.000000" stroke="none" 
	d="
M671.421387,617.086304 
	C667.176941,616.709839 663.309631,616.375977 659.446045,616.004150 
	C657.507996,615.817627 655.576477,615.561951 653.285889,615.109863 
	C658.290466,614.416809 663.647644,613.711731 669.013916,613.634338 
	C670.594971,613.611511 672.201660,615.364258 673.932007,616.622803 
	C673.311584,616.999268 672.555847,617.056213 671.421387,617.086304 
z"/>
<path fill="#277E96" opacity="1.000000" stroke="none" 
	d="
M631.737976,613.144348 
	C631.277588,612.965393 630.817139,612.786377 630.192749,612.419495 
	C636.613770,612.880432 643.198730,613.529175 650.034485,614.442078 
	C649.513855,614.839294 648.742371,614.972351 647.121399,615.072510 
	C641.427246,614.407776 636.582581,613.776062 631.737976,613.144348 
z"/>
<path fill="#2A7F8F" opacity="1.000000" stroke="none" 
	d="
M550.915466,579.529663 
	C550.856934,580.390442 550.657898,580.929199 550.294678,581.700806 
	C548.631226,580.218384 547.016235,578.588989 545.663391,576.765137 
	C544.136230,574.706116 543.982666,572.816284 547.393372,571.959534 
	C548.732422,574.338684 549.753723,576.773132 550.915466,579.529663 
z"/>
<path fill="#277E96" opacity="1.000000" stroke="none" 
	d="
M880.019775,712.464478 
	C879.905212,713.821655 879.788818,714.765869 879.672424,715.710144 
	C879.331543,715.699951 878.990662,715.689697 878.649780,715.679504 
	C878.649780,711.414062 878.649780,707.148682 878.649780,702.883240 
	C879.105835,702.856750 879.561890,702.830261 880.017944,702.803772 
	C880.017944,705.886414 880.017944,708.968994 880.019775,712.464478 
z"/>
<path fill="#277E96" opacity="1.000000" stroke="none" 
	d="
M688.938049,615.112183 
	C688.454834,615.072632 687.971558,615.032959 687.137085,614.894226 
	C690.973633,611.312012 692.957458,611.453491 696.680237,615.840942 
	C696.355652,616.196167 695.987610,616.207947 695.094421,615.933716 
	C692.692200,615.469177 690.815125,615.290710 688.938049,615.112183 
z"/>
<path fill="#277E96" opacity="1.000000" stroke="none" 
	d="
M570.560852,601.845947 
	C568.733093,601.337036 566.910889,600.478699 564.918823,599.400330 
	C567.490784,597.936096 569.466736,598.615845 570.560852,601.845947 
z"/>
<path fill="#2A7F8F" opacity="1.000000" stroke="none" 
	d="
M579.964722,607.826843 
	C578.304382,608.798828 576.593262,610.881775 575.292725,607.261108 
	C575.921082,606.717468 576.383911,606.518433 576.846802,606.319336 
	C577.356262,606.332764 577.865784,606.346191 578.860779,606.587769 
	C579.552490,607.152893 579.758606,607.489868 579.964722,607.826843 
z"/>
<path fill="#277E96" opacity="1.000000" stroke="none" 
	d="
M862.843750,713.712036 
	C862.026367,712.510986 861.148743,710.970398 860.270996,709.063965 
	C861.108337,710.256226 861.945923,711.814453 862.843750,713.712036 
z"/>
<path fill="#277E96" opacity="1.000000" stroke="none" 
	d="
M619.138428,611.413696 
	C618.123962,611.626160 616.901978,611.623169 615.364136,611.429932 
	C616.342468,611.225891 617.636719,611.212097 619.138428,611.413696 
z"/>
<path fill="#277E96" opacity="1.000000" stroke="none" 
	d="
M580.414429,607.792908 
	C579.758606,607.489868 579.552490,607.152893 579.237549,606.654419 
	C580.205444,606.592529 581.282104,606.692200 582.476624,607.020447 
	C582.017700,607.419006 581.440979,607.588989 580.414429,607.792908 
z"/>
<path fill="#277E96" opacity="1.000000" stroke="none" 
	d="
M684.764526,614.989624 
	C684.122925,615.420593 683.273560,615.674500 682.087280,615.843994 
	C682.685852,615.443848 683.621338,615.128174 684.764526,614.989624 
z"/>
<path fill="#277E96" opacity="1.000000" stroke="none" 
	d="
M879.784851,725.869751 
	C879.282959,726.070862 878.855957,726.006897 878.110657,725.880981 
	C878.207214,725.064636 878.622009,724.310120 879.482727,722.744568 
	C879.686340,724.289368 879.773010,724.947021 879.784851,725.869751 
z"/>
<path fill="#277E96" opacity="1.000000" stroke="none" 
	d="
M875.788208,726.593628 
	C875.171448,726.782166 874.138672,726.867798 872.960938,726.739990 
	C873.668091,726.514587 874.520081,726.502686 875.788208,726.593628 
z"/>
<path fill="#277E96" opacity="1.000000" stroke="none" 
	d="
M607.233887,610.405273 
	C606.771912,610.576050 606.165710,610.566284 605.300171,610.387451 
	C605.723877,610.220520 606.406738,610.222656 607.233887,610.405273 
z"/>
<path fill="#277E96" opacity="1.000000" stroke="none" 
	d="
M576.632202,606.109009 
	C576.383911,606.518433 575.921082,606.717468 575.206116,606.964844 
	C574.875061,606.729736 574.803833,606.444519 574.719238,605.940491 
	C575.271362,605.781982 575.844543,605.840332 576.632202,606.109009 
z"/>
<path fill="#277E96" opacity="1.000000" stroke="none" 
	d="
M867.646729,720.848633 
	C867.186523,720.556519 866.703735,719.970276 866.199097,719.086304 
	C866.659668,719.377258 867.141907,719.965881 867.646729,720.848633 
z"/>
<path fill="#DFB996" opacity="1.000000" stroke="none" 
	d="
M306.013672,554.832581 
	C310.467590,557.155823 314.936554,559.869507 319.364868,562.647949 
	C331.311615,570.143738 342.736237,578.677002 355.290771,584.952759 
	C376.302094,595.455872 398.787720,599.416870 422.024719,593.536255 
	C428.514771,591.893860 434.540375,588.250793 440.620667,585.208984 
	C445.199127,582.918518 449.662109,580.328186 453.918427,577.485046 
	C457.170044,575.313049 460.160156,572.686951 463.011292,569.992676 
	C467.223083,566.012573 471.208313,561.792664 475.637329,557.552856 
	C479.291321,565.366455 475.495972,572.199829 472.939850,579.404724 
	C468.178802,592.824707 463.726685,606.366089 459.605042,619.995789 
	C457.750122,626.129761 455.487213,631.819702 449.689148,634.928711 
	C440.228729,640.001465 431.979340,646.844482 422.041138,651.430969 
	C406.852844,658.440369 391.585388,661.530945 375.110077,659.668274 
	C370.818542,659.183105 366.482819,658.987000 362.161987,658.881653 
	C349.447052,658.571716 337.788879,653.341125 326.364807,649.120850 
	C318.305054,646.143311 310.318726,639.529602 309.919098,627.726257 
	C309.683044,620.755554 306.225372,613.635620 303.116333,607.106750 
	C300.864227,602.377563 300.334961,597.909973 302.621918,593.777710 
	C308.247070,583.613708 307.719910,573.035767 306.149567,562.188477 
	C305.820770,559.917297 306.042267,557.566589 306.013672,554.832581 
z"/>
<path fill="#2A7F8F" opacity="1.000000" stroke="none" 
	d="
M631.890625,613.464600 
	C636.582581,613.776062 641.427246,614.407776 646.729431,615.067505 
	C647.187012,616.386230 647.187012,617.677063 647.187012,618.895813 
	C640.178345,621.175720 635.288940,619.478455 631.890625,613.464600 
z"/>
<path fill="#2A7F8F" opacity="1.000000" stroke="none" 
	d="
M689.171082,615.358459 
	C690.815125,615.290710 692.692200,615.469177 694.819153,615.899658 
	C693.180725,615.969421 691.292419,615.787109 689.171082,615.358459 
z"/>
<path fill="#2A7F8F" opacity="1.000000" stroke="none" 
	d="
M552.099426,587.361206 
	C553.051758,588.469299 553.992981,589.943787 554.914551,591.805542 
	C553.959412,590.704407 553.023865,589.216003 552.099426,587.361206 
z"/>
<path fill="#2A7F8F" opacity="1.000000" stroke="none" 
	d="
M554.858459,594.241333 
	C555.937317,595.050537 556.887146,596.105164 557.923340,597.444214 
	C556.916260,596.648010 555.822815,595.567383 554.858459,594.241333 
z"/>
<path fill="#E0BA96" opacity="1.000000" stroke="none" 
	d="
M287.436157,285.729492 
	C292.211212,281.200714 296.742554,276.952179 301.350708,272.788635 
	C302.449097,271.796204 304.217133,271.357269 304.970428,270.202637 
	C308.544586,264.724152 313.994293,264.342560 319.778717,263.643188 
	C328.156097,262.630249 336.371094,259.794128 344.743591,259.330872 
	C357.967133,258.599213 371.264648,259.117462 384.529419,259.250183 
	C392.494843,259.329834 400.477112,260.144135 408.417145,259.808472 
	C421.982483,259.235016 435.510437,257.682526 449.076202,257.273285 
	C453.176025,257.149597 457.318604,259.566071 461.494202,260.608307 
	C471.445801,263.092285 479.545319,269.250183 487.915283,274.572998 
	C491.515167,276.862366 494.804077,281.818115 495.523529,286.025940 
	C497.252625,296.139374 497.038300,306.567139 498.248901,316.792175 
	C499.457275,326.998718 501.909515,337.064606 502.973145,347.279938 
	C504.276459,359.797485 505.486115,372.416138 505.326538,384.973175 
	C505.086487,403.861969 503.406616,422.728180 502.794983,441.618774 
	C502.575500,448.398315 503.860138,455.215027 504.068115,462.026703 
	C504.132629,464.140442 503.599854,467.194489 502.170685,468.285370 
	C491.166046,476.685059 483.985352,488.501923 474.611023,498.325958 
	C473.468140,499.523621 471.684967,500.110260 470.198486,500.980042 
	C469.451904,499.273529 468.501740,497.625031 467.995850,495.849915 
	C466.283142,489.840057 464.877472,483.738129 462.997772,477.783966 
	C462.574799,476.444061 460.868439,475.257416 459.477875,474.515930 
	C450.859100,469.920105 442.061676,465.650391 433.543579,460.879608 
	C430.447998,459.145844 427.571442,456.659790 425.269714,453.944916 
	C420.428925,448.235199 414.902649,447.299072 408.743286,451.763489 
	C400.711853,457.584808 400.889130,457.341705 392.731232,451.390259 
	C390.807526,449.986847 386.960358,449.951538 384.489990,450.770599 
	C367.743256,456.323242 351.457733,462.991669 336.126221,471.867798 
	C332.794708,473.796570 330.564880,476.089935 330.312439,479.922180 
	C329.711578,489.044067 329.097473,498.168610 328.761658,507.302124 
	C328.666046,509.902344 329.664429,512.526184 329.847229,515.160950 
	C329.927063,516.311340 329.531372,517.854248 328.754456,518.577271 
	C328.241943,519.054199 326.364471,518.767212 325.613159,518.172058 
	C320.302155,513.965515 315.075562,509.648041 309.917480,505.253937 
	C304.152313,500.342712 297.911530,495.829987 292.893280,490.233276 
	C280.390900,476.289795 271.513885,460.768341 272.654083,440.895111 
	C273.047577,434.036621 270.679291,427.061920 270.423706,420.109039 
	C270.252655,415.456238 270.929382,410.534363 272.378662,406.110229 
	C275.247162,397.353729 273.418610,388.672638 273.147919,379.942657 
	C272.942902,373.330017 272.900482,366.712341 272.689819,360.099945 
	C272.336914,349.023346 279.542175,340.572357 282.911987,330.791870 
	C283.715240,328.460480 285.700562,326.062408 287.801208,324.748901 
	C292.423157,321.858826 292.525513,318.197174 291.337524,313.572693 
	C289.441559,306.192261 287.803192,298.738464 286.337494,291.260498 
	C286.019989,289.640533 286.894897,287.786865 287.436157,285.729492 
z"/>
<path fill="#DEB895" opacity="1.000000" stroke="none" 
	d="
M421.668335,475.580139 
	C430.939056,479.846558 440.409393,483.134491 448.351562,488.630707 
	C452.740448,491.667999 454.684662,498.343018 457.494232,503.506989 
	C458.666321,505.661255 458.893921,508.341858 460.121155,510.451416 
	C463.773346,516.729553 464.417145,519.319702 458.643005,523.048096 
	C448.892609,529.343994 444.645142,539.722351 437.631439,547.987549 
	C432.053497,554.560791 427.563751,562.070679 421.867889,568.526855 
	C416.742065,574.336792 410.102722,578.301880 401.975372,578.589355 
	C400.417786,578.644409 398.762390,577.876892 397.261505,577.233582 
	C392.587860,575.230347 387.848969,573.328857 383.354858,570.969788 
	C377.639221,567.969482 371.715057,565.109375 366.642914,561.199951 
	C358.788635,555.146179 351.219391,548.615417 344.211823,541.604614 
	C338.753937,536.144226 336.404755,528.653320 336.619781,521.027649 
	C336.819092,513.959961 338.405487,506.929718 339.417603,499.888214 
	C339.581818,498.745819 340.067261,497.643707 340.180450,496.500824 
	C340.841370,489.826050 344.695618,486.307892 351.346863,484.853394 
	C362.810181,482.346619 374.037384,478.603790 385.579498,476.663910 
	C394.478790,475.168243 403.707062,475.589966 412.792908,475.268280 
	C415.598694,475.168945 418.417206,475.428436 421.668335,475.580139 
M379.482452,513.624634 
	C384.531036,522.010620 391.756287,527.877930 401.187744,530.140808 
	C403.981171,530.810974 408.557831,529.331482 410.495453,527.189209 
	C414.558838,522.696472 417.578766,517.208191 420.701782,511.935883 
	C422.611084,508.712646 421.610931,506.388641 417.495148,506.428009 
	C407.242096,506.526093 396.988647,506.664551 386.738129,506.904877 
	C382.875488,506.995392 380.839935,509.535858 379.482452,513.624634 
z"/>
<path fill="#2D2C2B" opacity="1.000000" stroke="none" 
	d="
M379.572693,513.279663 
	C380.839935,509.535858 382.875488,506.995392 386.738129,506.904877 
	C396.988647,506.664551 407.242096,506.526093 417.495148,506.428009 
	C421.610931,506.388641 422.611084,508.712646 420.701782,511.935883 
	C417.578766,517.208191 414.558838,522.696472 410.495453,527.189209 
	C408.557831,529.331482 403.981171,530.810974 401.187744,530.140808 
	C391.756287,527.877930 384.531036,522.010620 379.572693,513.279663 
z"/>
</svg>